<svg id="圖層_1" data-name="圖層 1" xmlns="http://www.w3.org/2000/svg" viewBox="0 0 20.5 20.5"><defs><style>.cls-1{fill:#868687;}</style></defs><path class="cls-1" d="M-185.25,385.67a.75.75,0,0,0-.75-.75.75.75,0,0,0-.75.75Zm-1.5,4.33a.76.76,0,0,0,.75.75.76.76,0,0,0,.75-.75Zm.58-7.83v-.75a.75.75,0,0,0-.75.75Zm0,.33h-.75a.76.76,0,0,0,.75.75Zm.34,0v.75a.76.76,0,0,0,.75-.75Zm0-.33h.75a.75.75,0,0,0-.75-.75Zm8.58,3.83a8.75,8.75,0,0,1-8.75,8.75v1.5A10.25,10.25,0,0,0-175.75,386Zm-8.75,8.75a8.75,8.75,0,0,1-8.75-8.75h-1.5A10.25,10.25,0,0,0-186,396.25Zm-8.75-8.75a8.75,8.75,0,0,1,8.75-8.75v-1.5A10.25,10.25,0,0,0-196.25,386Zm8.75-8.75a8.75,8.75,0,0,1,8.75,8.75h1.5A10.25,10.25,0,0,0-186,375.75Zm-.75,8.42V390h1.5v-4.33Zm-.17-3.5v.33h1.5v-.33Zm.75,1.08h.34v-1.5h-.34Zm1.09-.75v-.33h-1.5v.33Zm-.75-1.08h-.34v1.5h.34Z" transform="translate(196.25 -375.75)"/></svg>